{"title":"Chain.of.Fools.2000.1080p.WEB-DL.DD5.1.H264-RARBG","uid":11994792,"size":3068062071,"categoryP":"video","categoryS":"hd___movies","magnet":"?xt=urn:btih:042236c453094bb437ec4abd868cfe3b72f47452&amp;dn=Chain.of.Fools.2000.1080p.WEB-DL.DD5.1.H264-RARBG&amp;tr=udp%3A%2F%2Ftracker.openbittorrent.com%3A80&amp;tr=udp%3A%2F%2Fopen.demonii.com%3A1337&amp;tr=udp%3A%2F%2Ftracker.coppersurfer.tk%3A6969&amp;tr=udp%3A%2F%2Fexodus.desync.com%3A6969","seeders":1,"leechers":0,"uploader":"vickey1992","files":5,"time":1433601757,"description":"/Video\nID                                       : 1\nFormat                                   : AVC\nFormat/Info                              : Advanced Video Codec\nFormat profile                           : &lt;a class=&quot;__cf_email__&quot; href=&quot;/cdn-cgi/l/email-protection&quot; data-cfemail=&quot;83cbeae4ebc3cfb7adb3&quot;&gt;[email&amp;#160;protected]&lt;/a&gt;&lt;script data-cfhash='f9e31' type=&quot;text/javascript&quot;&gt;\n/* &lt;![CDATA[ */!function(){try{var t=&quot;currentScript&quot;in document?document.currentScript:function(){for(var t=document.getElementsByTagName(&quot;script&quot;),e=t.length;e--;)if(t[e].getAttribute(&quot;data-cfhash&quot;))return t[e]}();if(t&amp;&amp;t.previousSibling){var e,r,n,i,c=t.previousSibling,a=c.getAttribute(&quot;data-cfemail&quot;);if(a){for(e=&quot;&quot;,r=parseInt(a.substr(0,2),16),n=2;a.length-n;n+=2)i=parseInt(a.substr(n,2),16)^r,e+=String.fromCharCode(i);e=document.createTextNode(e),c.parentNode.replaceChild(e,c)}t.parentNode.removeChild(t);}}catch(u){}}()/* ]]&gt; */&lt;/script&gt;\nFormat settings, CABAC                   : Yes\nFormat settings, ReFrames                : 5 frames\nCodec ID                                 : V_MPEG4/ISO/AVC\nDuration                                 : 1h 38mn\nBit rate                                 : 3 685 Kbps\nWidth                                    : 1 910 pixels\nHeight                                   : 798 pixels\nDisplay aspect ratio                     : 2.40:1\nFrame rate mode                          : Constant\nFrame rate                               : 23.976 fps\nColor space                              : YUV\nChroma subsampling                       : 4:2:0\nBit depth                                : 8 bits\nScan type                                : Progressive\nBits/(Pixel*Frame)                       : 0.101\nStream size                              : 2.54 GiB (89%)\nTitle                                    : Chain.of.Fools.2000.1080p.WEB-DL.DD5.1.H264-RARBG\nLanguage                                 : English\nDefault                                  : Yes\nForced                                   : No\nColor primaries                          : BT.709\nTransfer characteristics                 : BT.709\nMatrix coefficients                      : BT.709\nColor range                              : Limited\n\nAudio\nID                                       : 2\nFormat                                   : AC-3\nFormat/Info                              : Audio Coding 3\nMode extension                           : CM (complete main)\nFormat settings, Endianness              : Big\nCodec ID                                 : A_AC3\nDuration                                 : 1h 38mn\nBit rate mode                            : Constant\nBit rate                                 : 384 Kbps\nChannel(s)                               : 6 channels\nChannel positions                        : Front: L C R, Side: L R, LFE\nSampling rate                            : 48.0 KHz\nBit depth                                : 16 bits\nCompression mode                         : Lossy\nStream size                              : 271 MiB (9%)\nTitle                                    : Chain.of.Fools.2000.1080p.WEB-DL.DD5.1.H264-RARBG\nLanguage                                 : English\nDefault                                  : Yes\nForced                                   : No\n\nText\nID                                       : 3\nFormat                                   : UTF-8\nCodec ID                                 : S_TEXT/UTF8\nCodec ID/Info                            : UTF-8 Plain Text\nLanguage                                 : English\nDefault                                  : Yes\nForced                                   : No\n\nMenu\n00:00:00.000                             : en:1.\n00:02:46.000                             : en:2.\n00:06:30.000                             : en:3.\n00:09:49.000                             : en:4.\n00:13:45.000                             : en:5.\n00:18:28.000                             : en:6.\n00:22:28.000                             : en:7.\n00:28:32.000                             : en:8.\n00:32:22.000                             : en:9.\n00:36:01.000                             : en:10.\n00:41:07.000                             : en:11.\n00:43:45.000                             : en:12.\n00:47:17.000                             : en:13.\n00:51:05.000                             : en:14.\n00:54:44.000                             : en:15.\n01:01:12.000                             : en:16.\n01:07:44.000                             : en:17.\n01:11:37.000                             : en:18.\n01:16:44.000                             : en:19.\n01:20:30.000                             : en:20.\n01:25:40.000                             : en:21.\n01:28:41.000                             : en:22.\n01:32:20.000                             : en:23.\n01:34:26.000                             : en:24","torrent":{"xt":"urn:btih:042236c453094bb437ec4abd868cfe3b72f47452","amp;dn":"Chain.of.Fools.2000.1080p.WEB-DL.DD5.1.H264-RARBG","amp;tr":["udp%3A%2F%2Ftracker.openbittorrent.com%3A80","udp%3A%2F%2Fopen.demonii.com%3A1337","udp%3A%2F%2Ftracker.coppersurfer.tk%3A6969","udp%3A%2F%2Fexodus.desync.com%3A6969"],"infoHash":"042236c453094bb437ec4abd868cfe3b72f47452","infoHashBuffer":{"type":"Buffer","data":[4,34,54,196,83,9,75,180,55,236,74,189,134,140,254,59,114,244,116,82]},"announce":[],"urlList":[]}}